<?xml version="1.0" encoding="utf-8"?>
<!-- Generator: Adobe Illustrator 21.0.0, SVG Export Plug-In . SVG Version: 6.00 Build 0)  -->
<svg version="1.1" id="Слой_1" xmlns="http://www.w3.org/2000/svg" xmlns:xlink="http://www.w3.org/1999/xlink" x="0px" y="0px"
	 width="151.5px" height="44.1px" viewBox="0 0 151.5 44.1" style="enable-background:new 0 0 151.5 44.1;" xml:space="preserve">
<style type="text/css">
	.st0{fill:url(#SVGID_1_);}
	.st1{fill:#FFF;}
	.st2{fill:#FCDD32;}
</style>
<g>
	
		<linearGradient id="SVGID_1_" gradientUnits="userSpaceOnUse" x1="0" y1="509.7371" x2="80.6297" y2="509.7371" gradientTransform="matrix(1 0 0 -1 0 541.697)">
		<stop  offset="0" style="stop-color:#FCDD32"/>
		<stop  offset="1" style="stop-color:#FCDD32;stop-opacity:0"/>
	</linearGradient>
	<path class="st0" d="M80.6,39.3c0,0-87.4,19.3-76.1-19.5c0,0-32.4,30.5,75.8,5.7l-6.7,6.5L80.6,39.3z"/>
	<g>
		<path class="st1" d="M28.7,23.3c-1.3,0-2.2-0.4-2.9-1.1s-1-1.7-1-3c0-0.6,0.1-1.2,0.3-1.7c0.2-0.5,0.5-0.9,0.8-1.3
			c0.4-0.3,0.8-0.6,1.3-0.8c0.5-0.2,1-0.3,1.6-0.3c0.3,0,0.6,0,0.9,0.1s0.5,0.1,0.7,0.2s0.4,0.1,0.5,0.2c0.1,0.1,0.2,0.1,0.3,0.2
			l-0.5,1.4c-0.2-0.1-0.5-0.2-0.8-0.3c-0.3-0.1-0.7-0.1-1.1-0.1c-0.3,0-0.5,0-0.8,0.1s-0.5,0.2-0.7,0.4c-0.2,0.2-0.4,0.5-0.5,0.8
			c-0.1,0.3-0.2,0.7-0.2,1.1c0,0.4,0,0.7,0.1,1c0.1,0.3,0.2,0.6,0.4,0.8s0.4,0.4,0.7,0.5c0.3,0.1,0.6,0.2,1,0.2c0.3,0,0.5,0,0.7,0
			c0.2,0,0.4-0.1,0.5-0.1c0.2,0,0.3-0.1,0.4-0.1c0.1-0.1,0.2-0.1,0.3-0.1l0.5,1.4c-0.2,0.2-0.6,0.3-1,0.4
			C29.8,23.3,29.3,23.3,28.7,23.3z"/>
		<path class="st1" d="M38.5,15.4v1.5h-2.4v6.3h-1.8v-6.3H32v-1.5H38.5z"/>
		<path class="st1" d="M43.9,20.9c-0.2,0.5-0.4,0.9-0.7,1.2c-0.2,0.3-0.5,0.6-0.7,0.7c-0.3,0.2-0.5,0.3-0.8,0.4s-0.5,0.1-0.8,0.1
			c-0.3,0-0.5,0-0.8-0.1c-0.3,0-0.5-0.1-0.8-0.2l0.3-1.4c0.4,0.1,0.7,0.2,1.1,0.2c0.2,0,0.5-0.1,0.7-0.2c0.2-0.1,0.4-0.3,0.6-0.7
			c-0.3-0.5-0.6-1-0.9-1.5c-0.3-0.5-0.6-1-0.8-1.5s-0.5-1-0.7-1.4s-0.4-0.9-0.6-1.2H41c0.1,0.3,0.3,0.6,0.4,0.9
			c0.1,0.3,0.3,0.7,0.5,1c0.2,0.4,0.3,0.7,0.5,1.1s0.3,0.7,0.5,1c0.2-0.7,0.5-1.3,0.7-2c0.2-0.7,0.4-1.4,0.6-2.1h1.9
			c-0.2,0.6-0.4,1.1-0.6,1.6c-0.2,0.5-0.4,1-0.6,1.4c-0.2,0.5-0.4,0.9-0.5,1.3C44.3,20.1,44.1,20.5,43.9,20.9z"/>
		<path class="st1" d="M45.7,21.7h1.1c0.3-0.5,0.5-1,0.7-1.4c0.2-0.5,0.3-1,0.4-1.4c0.1-0.5,0.1-1,0.1-1.5s0-1.1,0-1.6v-0.3h5.2v6.3
			h1.3v3.6h-1.7v-2.1h-5.4v2.1h-1.7L45.7,21.7L45.7,21.7z M49.7,16.9c0,0.4,0,0.8-0.1,1.2c0,0.4-0.1,0.9-0.2,1.3
			c-0.1,0.4-0.2,0.8-0.3,1.2c-0.1,0.4-0.3,0.8-0.5,1.1h2.8v-4.8H49.7z"/>
		<path class="st1" d="M55.7,23.2v-7.8h1.7V20c0.3-0.4,0.6-0.8,0.9-1.3c0.3-0.4,0.6-0.9,0.9-1.3c0.3-0.4,0.6-0.8,0.9-1.2
			c0.3-0.4,0.6-0.7,0.8-0.9h1.4v7.8h-1.7v-5.1c-0.7,0.8-1.3,1.6-1.9,2.5s-1.1,1.8-1.6,2.6L55.7,23.2L55.7,23.2z"/>
		<path class="st1" d="M67.8,15.3c0.3,0,0.7,0,1.1,0.1s0.8,0.1,1.3,0.2v7.6h-1.8v-2.8h-0.5c-0.1,0-0.2,0-0.3,0c-0.1,0-0.2,0-0.3,0
			c-0.2,0.3-0.5,0.8-0.8,1.3c-0.3,0.5-0.6,1-0.8,1.6h-1.9c0.1-0.3,0.3-0.6,0.4-0.9c0.2-0.3,0.3-0.6,0.5-0.9c0.2-0.3,0.3-0.5,0.5-0.7
			c0.2-0.2,0.3-0.4,0.4-0.6c-0.2-0.1-0.3-0.2-0.5-0.3c-0.2-0.1-0.3-0.3-0.4-0.4s-0.2-0.4-0.3-0.6c-0.1-0.2-0.1-0.5-0.1-0.8
			c0-0.4,0.1-0.8,0.3-1.1c0.2-0.3,0.4-0.6,0.7-0.8c0.3-0.2,0.7-0.4,1.1-0.5C66.7,15.4,67.2,15.3,67.8,15.3z M67.7,16.8
			c-0.2,0-0.4,0-0.6,0.1c-0.2,0-0.4,0.1-0.5,0.2c-0.2,0.1-0.3,0.2-0.4,0.3C66,17.5,66,17.7,66,17.9c0,0.4,0.1,0.7,0.4,0.8
			c0.3,0.2,0.7,0.2,1.3,0.2h0.7v-2.1c-0.1,0-0.2,0-0.3,0C68,16.8,67.9,16.8,67.7,16.8z"/>
		<path class="st1" d="M81.8,15.6v7.8H80v-6.3h-2.9v6.3h-1.8v-7.8H81.8z"/>
		<path class="st1" d="M91,19.5c0,0.7-0.1,1.3-0.3,1.8c-0.2,0.5-0.5,0.9-0.8,1.3c-0.3,0.3-0.8,0.6-1.2,0.8s-1,0.3-1.5,0.3
			c-0.5,0-1-0.1-1.5-0.3c-0.5-0.2-0.9-0.4-1.2-0.8c-0.4-0.3-0.6-0.8-0.8-1.3c-0.2-0.5-0.3-1.1-0.3-1.8c0-0.7,0.1-1.3,0.3-1.8
			c0.2-0.5,0.5-0.9,0.9-1.3c0.4-0.3,0.8-0.6,1.2-0.8c0.5-0.2,1-0.3,1.5-0.3c0.5,0,1,0.1,1.5,0.3c0.5,0.2,0.9,0.4,1.2,0.8
			c0.4,0.3,0.6,0.8,0.8,1.3C90.9,18.2,91,18.8,91,19.5z M85.1,19.5c0,0.4,0,0.7,0.1,1s0.2,0.6,0.4,0.8c0.2,0.2,0.4,0.4,0.6,0.5
			c0.3,0.1,0.5,0.2,0.9,0.2c0.3,0,0.6-0.1,0.9-0.2c0.3-0.1,0.5-0.3,0.7-0.5c0.2-0.2,0.3-0.5,0.4-0.8c0.1-0.3,0.1-0.7,0.1-1
			c0-0.4,0-0.7-0.1-1c-0.1-0.3-0.2-0.6-0.4-0.8c-0.2-0.2-0.4-0.4-0.7-0.5c-0.3-0.1-0.5-0.2-0.9-0.2c-0.3,0-0.6,0.1-0.9,0.2
			c-0.3,0.1-0.5,0.3-0.6,0.5c-0.2,0.2-0.3,0.5-0.4,0.8C85.1,18.8,85.1,19.1,85.1,19.5z"/>
		<path class="st1" d="M95.1,23.5c-0.4,0-0.9,0-1.3,0c-0.4,0-0.9-0.1-1.3-0.2v-7.6c0.4-0.1,0.8-0.1,1.2-0.2c0.4,0,0.8-0.1,1.2-0.1
			c0.5,0,1,0,1.4,0.1c0.4,0.1,0.8,0.2,1.1,0.4c0.3,0.2,0.5,0.4,0.7,0.7c0.2,0.3,0.3,0.6,0.3,1c0,0.6-0.3,1.1-0.9,1.5
			c0.5,0.2,0.8,0.4,1,0.8s0.3,0.7,0.3,1.1c0,0.8-0.3,1.4-0.9,1.8C97.2,23.3,96.3,23.5,95.1,23.5z M94.2,18.6h0.9
			c0.5,0,0.9-0.1,1.2-0.2s0.3-0.4,0.3-0.7c0-0.3-0.1-0.5-0.4-0.7c-0.2-0.1-0.6-0.2-1.1-0.2c-0.2,0-0.3,0-0.5,0c-0.2,0-0.3,0-0.5,0
			L94.2,18.6L94.2,18.6z M94.2,20v2c0.1,0,0.3,0,0.4,0c0.2,0,0.3,0,0.5,0c0.5,0,0.9-0.1,1.3-0.2c0.3-0.2,0.5-0.4,0.5-0.8
			c0-0.4-0.1-0.6-0.4-0.8c-0.3-0.2-0.7-0.2-1.2-0.2H94.2z"/>
		<path class="st1" d="M106,20.8c0,0.4-0.1,0.8-0.3,1.1c-0.2,0.3-0.4,0.6-0.7,0.8c-0.3,0.2-0.7,0.4-1.1,0.5
			c-0.4,0.1-0.9,0.2-1.5,0.2c-0.3,0-0.7,0-1.1-0.1c-0.4,0-0.8-0.1-1.2-0.2v-7.6h1.8v2.6c0.1,0,0.2,0,0.2,0c0.1,0,0.1,0,0.2,0
			c1.2,0,2.1,0.2,2.8,0.7C105.6,19.2,106,19.9,106,20.8z M102.2,19.6c0,0-0.1,0-0.2,0c-0.1,0-0.1,0-0.2,0V22c0.1,0,0.2,0,0.3,0
			c0.1,0,0.2,0,0.4,0c0.2,0,0.5,0,0.7-0.1c0.2,0,0.4-0.1,0.5-0.2c0.2-0.1,0.3-0.2,0.4-0.4c0.1-0.2,0.1-0.3,0.1-0.6
			c0-0.5-0.2-0.8-0.5-0.9C103.3,19.7,102.8,19.6,102.2,19.6z M106.9,15.6h1.8v7.8h-1.8V15.6z"/>
		<path class="st1" d="M120.2,23.4h-9.7v-7.8h1.8v6.3h2.2v-6.3h1.8v6.3h2.2v-6.3h1.8L120.2,23.4L120.2,23.4z"/>
		<path class="st1" d="M122,23.4v-7.8h5.3V17h-3.5v1.5h3.1V20h-3.1v1.9h3.8v1.5H122z"/>
		<path class="st1" d="M133.5,15.6h1.8v7.8h-1.8v-3.3h-2.9v3.3h-1.8v-7.8h1.8v3h2.9V15.6z"/>
		<path class="st1" d="M137.1,23.4v-7.8h1.7v4.6c0.3-0.4,0.6-0.8,0.9-1.3c0.3-0.4,0.6-0.9,0.9-1.3c0.3-0.4,0.6-0.8,0.9-1.2
			c0.3-0.4,0.6-0.7,0.8-0.9h1.4v7.8H142v-5.1c-0.7,0.8-1.3,1.6-1.9,2.5s-1.1,1.8-1.6,2.6L137.1,23.4L137.1,23.4z"/>
		<path class="st1" d="M149.2,15.5c0.3,0,0.7,0,1.1,0.1c0.4,0,0.8,0.1,1.3,0.2v7.6h-1.8v-2.8h-0.5c-0.1,0-0.2,0-0.3,0
			c-0.1,0-0.2,0-0.3,0c-0.2,0.3-0.5,0.8-0.8,1.3c-0.3,0.5-0.6,1-0.8,1.6h-1.9c0.1-0.3,0.3-0.6,0.4-0.9s0.3-0.6,0.5-0.9
			c0.2-0.3,0.3-0.5,0.5-0.7c0.2-0.2,0.3-0.4,0.4-0.6c-0.2-0.1-0.3-0.2-0.5-0.3c-0.2-0.1-0.3-0.3-0.4-0.4c-0.1-0.2-0.2-0.4-0.3-0.6
			c-0.1-0.2-0.1-0.5-0.1-0.8c0-0.4,0.1-0.8,0.3-1.1c0.2-0.3,0.4-0.6,0.7-0.8s0.7-0.4,1.1-0.5C148.1,15.6,148.6,15.5,149.2,15.5z
			 M149.1,17c-0.2,0-0.4,0-0.6,0.1c-0.2,0-0.4,0.1-0.5,0.2c-0.2,0.1-0.3,0.2-0.4,0.3s-0.1,0.3-0.1,0.5c0,0.4,0.1,0.7,0.4,0.8
			c0.3,0.2,0.7,0.2,1.3,0.2h0.7V17c-0.1,0-0.2,0-0.3,0C149.4,17,149.2,17,149.1,17z"/>
		<path class="st1" d="M29.7,35.9c-0.2,0.5-0.4,0.9-0.7,1.2c-0.2,0.3-0.5,0.6-0.7,0.7c-0.3,0.2-0.5,0.3-0.8,0.4
			c-0.3,0.1-0.5,0.1-0.8,0.1c-0.3,0-0.5,0-0.8-0.1c-0.3,0-0.5-0.1-0.8-0.2l0.3-1.4c0.4,0.1,0.7,0.2,1.1,0.2c0.2,0,0.5-0.1,0.7-0.2
			c0.2-0.1,0.4-0.3,0.6-0.7c-0.3-0.5-0.6-1-0.9-1.5c-0.3-0.5-0.6-1-0.8-1.5c-0.3-0.5-0.5-1-0.7-1.4s-0.4-0.9-0.6-1.2h1.9
			c0.1,0.3,0.3,0.6,0.4,0.9c0.1,0.3,0.3,0.7,0.5,1c0.2,0.4,0.3,0.7,0.5,1.1c0.2,0.4,0.3,0.7,0.5,1c0.2-0.7,0.5-1.3,0.7-2
			c0.2-0.7,0.4-1.4,0.6-2.1h1.9c-0.2,0.6-0.4,1.1-0.6,1.6c-0.2,0.5-0.4,1-0.6,1.4c-0.2,0.5-0.4,0.9-0.5,1.3
			C30,35.2,29.8,35.6,29.7,35.9z"/>
		<path class="st1" d="M36.2,38.4c-1.3,0-2.2-0.4-2.9-1.1c-0.7-0.7-1-1.7-1-3c0-0.6,0.1-1.2,0.3-1.7c0.2-0.5,0.5-0.9,0.8-1.3
			c0.4-0.3,0.8-0.6,1.3-0.8c0.5-0.2,1-0.3,1.6-0.3c0.3,0,0.6,0,0.9,0.1s0.5,0.1,0.7,0.2c0.2,0.1,0.4,0.1,0.5,0.2
			c0.1,0.1,0.2,0.1,0.3,0.2l-0.5,1.4c-0.2-0.1-0.5-0.2-0.8-0.3c-0.3-0.1-0.7-0.1-1.1-0.1c-0.3,0-0.5,0-0.8,0.1
			c-0.3,0.1-0.5,0.2-0.7,0.4c-0.2,0.2-0.4,0.5-0.5,0.8s-0.2,0.7-0.2,1.1c0,0.4,0,0.7,0.1,1c0.1,0.3,0.2,0.6,0.4,0.8
			c0.2,0.2,0.4,0.4,0.7,0.5c0.3,0.1,0.6,0.2,1,0.2c0.3,0,0.5,0,0.7,0c0.2,0,0.4-0.1,0.5-0.1c0.2,0,0.3-0.1,0.4-0.1
			c0.1-0.1,0.2-0.1,0.3-0.1l0.5,1.4c-0.2,0.2-0.6,0.3-1,0.4C37.3,38.3,36.8,38.4,36.2,38.4z"/>
		<path class="st1" d="M46.3,30.4v7.8h-1.8v-6.3h-2.9v6.3h-1.8v-7.8H46.3z"/>
		<path class="st1" d="M48.1,38.2v-7.8h5.3v1.5h-3.5v1.5H53v1.4h-3.1v1.9h3.8v1.5H48.1z"/>
		<path class="st1" d="M57.6,38.3c-0.4,0-0.9,0-1.3,0c-0.4,0-0.9-0.1-1.3-0.2v-7.6c0.4-0.1,0.8-0.1,1.2-0.2c0.4,0,0.8-0.1,1.2-0.1
			c0.5,0,1,0,1.4,0.1c0.4,0.1,0.8,0.2,1.1,0.4c0.3,0.2,0.5,0.4,0.7,0.7c0.2,0.3,0.3,0.6,0.3,1c0,0.6-0.3,1.1-0.9,1.5
			c0.5,0.2,0.8,0.4,1,0.8s0.3,0.7,0.3,1.1c0,0.8-0.3,1.4-0.9,1.8C59.6,38.1,58.7,38.3,57.6,38.3z M56.7,33.5h0.9
			c0.5,0,0.9-0.1,1.2-0.2c0.2-0.1,0.3-0.4,0.3-0.7c0-0.3-0.1-0.5-0.4-0.7c-0.2-0.1-0.6-0.2-1.1-0.2c-0.2,0-0.3,0-0.5,0
			c-0.2,0-0.3,0-0.5,0L56.7,33.5L56.7,33.5z M56.7,34.8v2c0.1,0,0.3,0,0.4,0c0.2,0,0.3,0,0.5,0c0.5,0,0.9-0.1,1.3-0.2
			s0.5-0.4,0.5-0.8c0-0.4-0.1-0.6-0.4-0.8c-0.3-0.2-0.7-0.2-1.2-0.2H56.7z"/>
		<path class="st1" d="M67.7,38.2c-0.1-0.3-0.2-0.5-0.3-0.8c-0.1-0.3-0.2-0.6-0.3-0.9h-3c-0.1,0.3-0.2,0.6-0.3,0.9
			c-0.1,0.3-0.2,0.6-0.3,0.8h-1.8c0.3-0.8,0.6-1.6,0.8-2.3c0.3-0.7,0.5-1.4,0.8-2c0.3-0.6,0.5-1.2,0.7-1.8c0.2-0.6,0.5-1.1,0.8-1.7
			h1.7c0.3,0.5,0.5,1.1,0.8,1.7c0.2,0.6,0.5,1.2,0.8,1.8c0.3,0.6,0.5,1.3,0.8,2c0.3,0.7,0.5,1.5,0.8,2.3L67.7,38.2L67.7,38.2z
			 M65.5,32.2c0,0.1-0.1,0.3-0.2,0.5c-0.1,0.2-0.2,0.4-0.3,0.7s-0.2,0.5-0.3,0.8c-0.1,0.3-0.2,0.6-0.4,1h2.2c-0.1-0.3-0.2-0.7-0.3-1
			c-0.1-0.3-0.2-0.6-0.3-0.8c-0.1-0.3-0.2-0.5-0.3-0.7C65.7,32.5,65.6,32.3,65.5,32.2z"/>
		<path class="st1" d="M70.5,38.2v-7.8h5.3v1.5h-3.5v1.5h3.1v1.4h-3.1v1.9h3.8v1.5H70.5z"/>
		<path class="st1" d="M79.4,30.4c0.1,0.2,0.3,0.6,0.5,0.9c0.2,0.4,0.4,0.8,0.6,1.2c0.2,0.4,0.4,0.9,0.6,1.3
			c0.2,0.4,0.4,0.9,0.5,1.2c0.2-0.4,0.3-0.8,0.5-1.2c0.2-0.4,0.4-0.9,0.6-1.3c0.2-0.4,0.4-0.8,0.6-1.2c0.2-0.4,0.3-0.7,0.5-0.9h1.6
			c0.1,0.5,0.1,1.1,0.2,1.7c0.1,0.6,0.1,1.3,0.2,2s0.1,1.4,0.1,2.1c0,0.7,0.1,1.4,0.1,2h-1.7c0-0.8-0.1-1.6-0.1-2.5
			c0-0.9-0.1-1.8-0.2-2.7c-0.1,0.3-0.3,0.7-0.5,1c-0.2,0.4-0.3,0.8-0.5,1.1c-0.2,0.4-0.3,0.7-0.5,1.1c-0.2,0.3-0.3,0.6-0.4,0.9h-1.2
			c-0.1-0.2-0.2-0.5-0.4-0.9c-0.2-0.3-0.3-0.7-0.5-1.1c-0.2-0.4-0.3-0.8-0.5-1.1c-0.2-0.4-0.3-0.7-0.5-1C79,34,79,34.9,78.9,35.8
			c0,0.9-0.1,1.7-0.1,2.5h-1.7c0-0.6,0.1-1.3,0.1-2c0-0.7,0.1-1.4,0.1-2.1s0.1-1.4,0.2-2c0.1-0.6,0.1-1.2,0.2-1.7H79.4z"/>
		<path class="st1" d="M94.9,34.3c0,0.7-0.1,1.3-0.3,1.8c-0.2,0.5-0.5,0.9-0.8,1.3c-0.3,0.3-0.8,0.6-1.2,0.8s-1,0.3-1.5,0.3
			c-0.5,0-1-0.1-1.5-0.3c-0.5-0.2-0.9-0.4-1.2-0.8c-0.4-0.3-0.6-0.8-0.8-1.3c-0.2-0.5-0.3-1.1-0.3-1.8c0-0.7,0.1-1.3,0.3-1.8
			c0.2-0.5,0.5-0.9,0.9-1.3c0.4-0.3,0.8-0.6,1.2-0.8c0.5-0.2,1-0.3,1.5-0.3c0.5,0,1,0.1,1.5,0.3c0.5,0.2,0.9,0.4,1.2,0.8
			c0.4,0.3,0.6,0.8,0.8,1.3C94.8,33.1,94.9,33.7,94.9,34.3z M88.9,34.3c0,0.4,0,0.7,0.1,1s0.2,0.6,0.4,0.8c0.2,0.2,0.4,0.4,0.6,0.5
			c0.3,0.1,0.5,0.2,0.9,0.2c0.3,0,0.6-0.1,0.9-0.2c0.3-0.1,0.5-0.3,0.7-0.5c0.2-0.2,0.3-0.5,0.4-0.8c0.1-0.3,0.1-0.7,0.1-1
			c0-0.4,0-0.7-0.1-1c-0.1-0.3-0.2-0.6-0.4-0.8s-0.4-0.4-0.7-0.5c-0.3-0.1-0.5-0.2-0.9-0.2c-0.3,0-0.6,0.1-0.9,0.2
			c-0.3,0.1-0.5,0.3-0.6,0.5c-0.2,0.2-0.3,0.5-0.4,0.8C89,33.6,88.9,33.9,88.9,34.3z"/>
		<path class="st1" d="M99.9,38.4c-1.3,0-2.2-0.4-2.9-1.1s-1-1.7-1-3c0-0.6,0.1-1.2,0.3-1.7c0.2-0.5,0.5-0.9,0.8-1.3
			c0.4-0.3,0.8-0.6,1.3-0.8c0.5-0.2,1-0.3,1.6-0.3c0.3,0,0.6,0,0.9,0.1c0.3,0,0.5,0.1,0.7,0.2s0.4,0.1,0.5,0.2
			c0.1,0.1,0.2,0.1,0.3,0.2l-0.5,1.4c-0.2-0.1-0.5-0.2-0.8-0.3c-0.3-0.1-0.7-0.1-1.1-0.1c-0.3,0-0.5,0-0.8,0.1
			c-0.3,0.1-0.5,0.2-0.7,0.4c-0.2,0.2-0.4,0.5-0.5,0.8c-0.1,0.3-0.2,0.7-0.2,1.1c0,0.4,0,0.7,0.1,1c0.1,0.3,0.2,0.6,0.4,0.8
			c0.2,0.2,0.4,0.4,0.7,0.5c0.3,0.1,0.6,0.2,1,0.2c0.3,0,0.5,0,0.7,0c0.2,0,0.4-0.1,0.5-0.1c0.2,0,0.3-0.1,0.4-0.1
			c0.1-0.1,0.2-0.1,0.3-0.1l0.5,1.4c-0.2,0.2-0.6,0.3-1,0.4C101,38.3,100.5,38.4,99.9,38.4z"/>
		<path class="st1" d="M109.7,30.4v1.5h-2.4v6.3h-1.8v-6.3h-2.4v-1.5H109.7z"/>
		<path class="st1" d="M110.8,38.2v-7.8h1.7V35c0.3-0.4,0.6-0.8,0.9-1.3c0.3-0.4,0.6-0.9,0.9-1.3c0.3-0.4,0.6-0.8,0.9-1.2
			c0.3-0.4,0.6-0.7,0.8-0.9h1.4v7.8h-1.7v-5.1c-0.7,0.8-1.3,1.6-1.9,2.5c-0.6,0.9-1.1,1.8-1.6,2.6L110.8,38.2L110.8,38.2z"/>
	</g>
	<g>
		<g>
			<path class="st1" d="M11.2,18.4l-6.4-5.4l0.1-0.4C5,12.6,8.8,0.3,20.4,0l0.5,0L21,0.4c0.1,0.4,2.2,9.6-9.4,17.7L11.2,18.4z
				 M6.1,12.7l5.2,4.3c9.3-6.7,9-13.9,8.7-15.8C10.6,1.7,6.8,10.8,6.1,12.7z"/>
			<g>
				<circle class="st2" cx="13.8" cy="8.5" r="2.1"/>
				<path class="st1" d="M13.8,11.2c-0.6,0-1.2-0.2-1.7-0.6c-0.6-0.5-0.9-1.1-1-1.8c-0.1-0.7,0.2-1.4,0.6-2c0.5-0.6,1.3-1,2.1-1
					c0.6,0,1.2,0.2,1.7,0.6c1.1,1,1.3,2.7,0.3,3.8C15.3,10.8,14.6,11.2,13.8,11.2z M13.8,6.9c-0.5,0-0.9,0.2-1.2,0.6
					c-0.3,0.3-0.4,0.7-0.4,1.1c0,0.4,0.2,0.8,0.6,1.1c0.6,0.5,1.7,0.4,2.2-0.2c0.6-0.7,0.5-1.7-0.2-2.2C14.5,7,14.2,6.9,13.8,6.9z"
					/>
			</g>
			<g>
				<path class="st2" d="M6.6,13.8l3.3,2.7c0,0,0.7,4.8-5.1,6L5,19.3L2.7,19C2.7,19,2.1,15.6,6.6,13.8z"/>
				<path class="st1" d="M4.3,23.3l0.2-3.5l-2.3-0.2l-0.1-0.4c0,0-0.6-3.9,4.3-5.9l0.3-0.1l3.7,3.1l0,0.2c0,0.1,0.7,5.4-5.5,6.7
					L4.3,23.3z M3.2,18.5l2.4,0.3l-0.2,3c3.8-1.1,4-4.2,3.9-5l-2.8-2.4C3.7,15.7,3.3,17.7,3.2,18.5z"/>
			</g>
		</g>
		<rect x="5.7" y="14.8" transform="matrix(0.645 -0.7642 0.7642 0.645 -8.6831 12.028)" class="st1" width="5.8" height="1.1"/>
		<path class="st1" d="M2.3,12.5l-1-0.6c0.1-0.2,3.2-5.2,6.3-3.7l-0.5,1C5,8.2,2.3,12.4,2.3,12.5z"/>
		<path class="st1" d="M13.2,21l-0.7-0.8c0,0,3.8-3.4,2.4-5.3l0.9-0.7C17.8,17,13.4,20.9,13.2,21z"/>
	</g>
</g>
</svg>
