<?xml version="1.0" encoding="utf-8"?>
<!-- Generator: Adobe Illustrator 16.0.0, SVG Export Plug-In . SVG Version: 6.00 Build 0)  -->
<!DOCTYPE svg PUBLIC "-//W3C//DTD SVG 1.1//EN" "http://www.w3.org/Graphics/SVG/1.1/DTD/svg11.dtd">
<svg version="1.1" id="Слой_1" xmlns="http://www.w3.org/2000/svg" xmlns:xlink="http://www.w3.org/1999/xlink" x="0px" y="0px"
	 width="588.11px" height="379.599px" viewBox="0 0 588.11 379.599" enable-background="new 0 0 588.11 379.599"
	 xml:space="preserve">
<g>
	<linearGradient id="SVGID_1_" gradientUnits="userSpaceOnUse" x1="221.8613" y1="207.376" x2="364.8413" y2="207.376">
		<stop  offset="0" style="stop-color:#FCDD32"/>
		<stop  offset="1" style="stop-color:#FCDD32;stop-opacity:0"/>
	</linearGradient>
	<path fill="url(#SVGID_1_)" d="M364.841,220.382c0,0-154.943,34.22-134.943-34.53c0,0-57.38,54.056,134.5,10.196l-11.945,11.503
		L364.841,220.382z"/>
	<g>
		<path fill="#010101" d="M301.884,183.777c-2.028,0-3.573-0.564-4.635-1.692s-1.593-2.73-1.593-4.806
			c0-1.032,0.162-1.953,0.486-2.763c0.324-0.81,0.768-1.494,1.332-2.052s1.236-0.981,2.016-1.269
			c0.78-0.288,1.626-0.432,2.538-0.432c0.528,0,1.008,0.039,1.44,0.117s0.81,0.168,1.134,0.27c0.324,0.102,0.594,0.207,0.81,0.315
			c0.216,0.108,0.372,0.192,0.468,0.252l-0.81,2.268c-0.384-0.204-0.831-0.378-1.341-0.522c-0.51-0.144-1.089-0.216-1.737-0.216
			c-0.432,0-0.855,0.072-1.269,0.216c-0.414,0.144-0.78,0.375-1.098,0.693c-0.318,0.318-0.573,0.729-0.765,1.233
			c-0.192,0.504-0.288,1.116-0.288,1.836c0,0.576,0.063,1.113,0.189,1.611s0.33,0.927,0.612,1.287
			c0.282,0.36,0.65,0.645,1.107,0.855c0.456,0.21,1.008,0.315,1.656,0.315c0.408,0,0.774-0.024,1.098-0.072
			c0.324-0.048,0.612-0.104,0.864-0.171c0.252-0.066,0.474-0.141,0.666-0.225c0.192-0.083,0.366-0.162,0.522-0.234l0.774,2.25
			c-0.396,0.24-0.954,0.456-1.674,0.648C303.667,183.681,302.832,183.777,301.884,183.777z"/>
		<path fill="#010101" d="M317.49,171.051v2.394h-3.762v10.08h-2.808v-10.08h-3.762v-2.394H317.49z"/>
		<path fill="#010101" d="M326.199,179.872c-0.348,0.792-0.714,1.443-1.098,1.953c-0.384,0.51-0.779,0.909-1.187,1.197
			c-0.408,0.288-0.822,0.486-1.242,0.594c-0.42,0.108-0.846,0.162-1.277,0.162c-0.408,0-0.831-0.039-1.269-0.117
			c-0.438-0.078-0.849-0.189-1.232-0.333l0.504-2.25c0.592,0.216,1.179,0.324,1.759,0.324c0.375,0,0.734-0.084,1.079-0.252
			c0.344-0.168,0.674-0.528,0.988-1.08c-0.495-0.768-0.969-1.557-1.421-2.367c-0.453-0.81-0.881-1.607-1.286-2.394
			s-0.779-1.542-1.123-2.268s-0.649-1.389-0.915-1.989h3.114c0.192,0.468,0.406,0.969,0.641,1.503
			c0.235,0.534,0.484,1.086,0.75,1.656c0.265,0.57,0.532,1.14,0.803,1.71c0.271,0.57,0.533,1.125,0.786,1.665
			c0.385-1.056,0.752-2.136,1.102-3.24c0.349-1.104,0.686-2.202,1.011-3.294h3.008c-0.314,0.924-0.622,1.788-0.924,2.592
			c-0.302,0.804-0.598,1.566-0.888,2.286c-0.29,0.72-0.577,1.404-0.86,2.052C326.739,178.629,326.464,179.259,326.199,179.872z"/>
		<path fill="#010101" d="M329.118,181.149h1.8c0.444-0.768,0.792-1.53,1.044-2.286c0.252-0.756,0.441-1.524,0.567-2.304
			c0.126-0.78,0.204-1.584,0.234-2.412s0.045-1.698,0.045-2.61v-0.486h8.244v10.098h2.142v5.706h-2.7v-3.33h-8.676v3.33h-2.7
			V181.149z M335.454,173.427c-0.024,0.648-0.066,1.314-0.126,1.998s-0.15,1.359-0.27,2.025s-0.279,1.314-0.477,1.944
			c-0.198,0.63-0.447,1.215-0.747,1.755h4.482v-7.722H335.454z"/>
		<path fill="#010101" d="M344.994,183.525v-12.474h2.79v7.362c0.432-0.648,0.894-1.323,1.386-2.025
			c0.492-0.702,0.987-1.379,1.485-2.034c0.498-0.654,0.987-1.269,1.467-1.845c0.48-0.576,0.918-1.062,1.314-1.458h2.286v12.474
			h-2.772v-8.172c-1.056,1.236-2.052,2.55-2.988,3.942s-1.806,2.802-2.61,4.23H344.994z"/>
		<path fill="#010101" d="M364.344,170.925c0.504,0,1.095,0.03,1.773,0.09c0.678,0.06,1.347,0.162,2.007,0.306v12.204h-2.808v-4.482
			h-0.864c-0.156,0-0.306,0-0.45,0s-0.318-0.012-0.522-0.036c-0.397,0.54-0.834,1.215-1.311,2.025
			c-0.476,0.81-0.919,1.641-1.328,2.493h-2.959c0.216-0.492,0.447-0.978,0.693-1.458c0.246-0.48,0.495-0.936,0.747-1.368
			c0.252-0.432,0.498-0.831,0.738-1.197c0.24-0.366,0.462-0.687,0.666-0.963c-0.264-0.12-0.525-0.279-0.783-0.477
			c-0.258-0.198-0.489-0.435-0.693-0.711s-0.369-0.603-0.495-0.981c-0.126-0.378-0.189-0.813-0.189-1.305
			c0-0.684,0.135-1.284,0.405-1.8c0.27-0.516,0.654-0.948,1.152-1.296c0.498-0.348,1.104-0.609,1.818-0.783
			S363.456,170.925,364.344,170.925z M364.218,173.337c-0.36,0-0.705,0.027-1.035,0.081c-0.33,0.054-0.621,0.144-0.873,0.27
			s-0.456,0.3-0.612,0.522c-0.156,0.222-0.234,0.501-0.234,0.837c0,0.636,0.225,1.074,0.675,1.314c0.45,0.24,1.119,0.36,2.007,0.36
			h1.17v-3.366c-0.144-0.012-0.3-0.018-0.468-0.018C364.68,173.337,364.47,173.337,364.218,173.337z"/>
		<path fill="#010101" d="M256.633,193.051v12.474h-2.808v-10.098h-4.644v10.098h-2.808v-12.474H256.633z"/>
		<path fill="#010101" d="M271.393,199.279c0,1.068-0.159,2.007-0.477,2.817c-0.318,0.81-0.753,1.488-1.305,2.034
			c-0.552,0.546-1.209,0.957-1.971,1.233s-1.581,0.414-2.457,0.414c-0.852,0-1.656-0.138-2.412-0.414
			c-0.756-0.276-1.417-0.687-1.98-1.233c-0.564-0.546-1.008-1.224-1.332-2.034c-0.324-0.81-0.486-1.749-0.486-2.817
			c0-1.068,0.168-2.007,0.504-2.817s0.789-1.491,1.359-2.043c0.57-0.552,1.229-0.966,1.98-1.242c0.75-0.276,1.539-0.414,2.367-0.414
			c0.852,0,1.656,0.138,2.412,0.414c0.756,0.276,1.416,0.69,1.98,1.242c0.564,0.552,1.008,1.233,1.332,2.043
			S271.393,198.211,271.393,199.279z M261.871,199.279c0,0.612,0.075,1.164,0.225,1.656s0.366,0.915,0.648,1.269
			c0.282,0.354,0.627,0.627,1.035,0.819c0.408,0.192,0.876,0.288,1.404,0.288c0.516,0,0.981-0.096,1.395-0.288
			s0.762-0.465,1.044-0.819c0.282-0.354,0.498-0.777,0.648-1.269s0.225-1.044,0.225-1.656c0-0.612-0.075-1.167-0.225-1.665
			c-0.15-0.498-0.366-0.924-0.648-1.278c-0.282-0.354-0.63-0.627-1.044-0.819s-0.879-0.288-1.395-0.288
			c-0.528,0-0.996,0.099-1.404,0.297c-0.408,0.198-0.753,0.474-1.035,0.828c-0.282,0.354-0.498,0.78-0.648,1.278
			C261.946,198.13,261.871,198.68,261.871,199.279z"/>
		<path fill="#010101" d="M277.891,205.688c-0.684,0-1.365-0.021-2.043-0.063c-0.678-0.042-1.383-0.141-2.115-0.297v-12.096
			c0.576-0.108,1.206-0.189,1.89-0.243c0.684-0.054,1.32-0.081,1.908-0.081c0.792,0,1.521,0.057,2.187,0.171
			c0.666,0.114,1.239,0.309,1.719,0.585s0.855,0.639,1.125,1.089c0.27,0.45,0.405,1.005,0.405,1.665c0,0.996-0.48,1.782-1.44,2.358
			c0.792,0.3,1.332,0.708,1.62,1.224s0.432,1.098,0.432,1.746c0,1.308-0.477,2.292-1.431,2.952
			C281.194,205.357,279.775,205.688,277.891,205.688z M276.469,197.947h1.368c0.864,0,1.482-0.111,1.854-0.333
			c0.372-0.222,0.558-0.579,0.558-1.071c0-0.504-0.192-0.858-0.576-1.062c-0.384-0.204-0.948-0.306-1.692-0.306
			c-0.24,0-0.498,0.003-0.774,0.009c-0.276,0.006-0.522,0.021-0.738,0.045V197.947z M276.469,200.089v3.222
			c0.204,0.024,0.426,0.042,0.666,0.054c0.24,0.012,0.504,0.018,0.792,0.018c0.84,0,1.518-0.12,2.034-0.36
			c0.516-0.24,0.774-0.684,0.774-1.332c0-0.576-0.216-0.987-0.648-1.233s-1.05-0.369-1.854-0.369H276.469z"/>
		<path fill="#010101" d="M295.261,201.439c0,0.696-0.135,1.308-0.405,1.836c-0.27,0.528-0.654,0.972-1.152,1.332
			s-1.104,0.63-1.818,0.81c-0.714,0.18-1.509,0.27-2.385,0.27c-0.504,0-1.077-0.036-1.719-0.108
			c-0.642-0.072-1.293-0.186-1.953-0.342v-12.186h2.808v4.14c0.132-0.012,0.255-0.018,0.369-0.018c0.114,0,0.237,0,0.369,0
			c1.956,0,3.426,0.348,4.41,1.044C294.769,198.914,295.261,199.988,295.261,201.439z M289.195,199.549c-0.061,0-0.144,0-0.252,0
			c-0.108,0-0.21,0.006-0.306,0.018v3.726c0.132,0.012,0.282,0.018,0.45,0.018c0.167,0,0.372,0,0.612,0
			c0.372,0,0.72-0.03,1.044-0.09c0.324-0.06,0.609-0.162,0.855-0.306c0.246-0.144,0.438-0.336,0.576-0.576
			c0.138-0.24,0.207-0.54,0.207-0.9c0-0.732-0.273-1.23-0.819-1.494C291.016,199.682,290.227,199.549,289.195,199.549z
			 M296.827,193.051h2.808v12.474h-2.808V193.051z"/>
		<path fill="#010101" d="M317.994,205.525h-15.48v-12.474h2.808v10.098h3.528v-10.098h2.808v10.098h3.528v-10.098h2.808V205.525z"
			/>
		<path fill="#010101" d="M320.874,205.525v-12.474h8.424v2.358h-5.616v2.448h4.986v2.304h-4.986v3.006h6.03v2.358H320.874z"/>
		<path fill="#010101" d="M339.306,193.051h2.808v12.474h-2.808v-5.292h-4.716v5.292h-2.808v-12.474h2.808v4.77h4.716V193.051z"/>
		<path fill="#010101" d="M344.994,205.525v-12.474h2.79v7.362c0.432-0.648,0.894-1.323,1.386-2.025
			c0.492-0.702,0.987-1.379,1.485-2.034c0.498-0.654,0.987-1.269,1.467-1.845c0.48-0.576,0.918-1.062,1.314-1.458h2.286v12.474
			h-2.772v-8.172c-1.056,1.236-2.052,2.55-2.988,3.942s-1.806,2.802-2.61,4.23H344.994z"/>
		<path fill="#010101" d="M364.344,192.925c0.504,0,1.095,0.03,1.773,0.09c0.678,0.06,1.347,0.162,2.007,0.306v12.204h-2.808v-4.482
			h-0.864c-0.156,0-0.306,0-0.45,0s-0.318-0.012-0.522-0.036c-0.397,0.54-0.834,1.215-1.311,2.025
			c-0.476,0.81-0.919,1.641-1.328,2.493h-2.959c0.216-0.492,0.447-0.978,0.693-1.458c0.246-0.48,0.495-0.936,0.747-1.368
			c0.252-0.432,0.498-0.831,0.738-1.197c0.24-0.366,0.462-0.687,0.666-0.963c-0.264-0.12-0.525-0.279-0.783-0.477
			c-0.258-0.198-0.489-0.435-0.693-0.711s-0.369-0.603-0.495-0.981c-0.126-0.378-0.189-0.813-0.189-1.305
			c0-0.684,0.135-1.284,0.405-1.8c0.27-0.516,0.654-0.948,1.152-1.296c0.498-0.348,1.104-0.609,1.818-0.783
			S363.456,192.925,364.344,192.925z M364.218,195.337c-0.36,0-0.705,0.027-1.035,0.081c-0.33,0.054-0.621,0.144-0.873,0.27
			s-0.456,0.3-0.612,0.522c-0.156,0.222-0.234,0.501-0.234,0.837c0,0.636,0.225,1.074,0.675,1.314c0.45,0.24,1.119,0.36,2.007,0.36
			h1.17v-3.366c-0.144-0.012-0.3-0.018-0.468-0.018C364.679,195.337,364.47,195.337,364.218,195.337z"/>
		<path fill="#010101" d="M227.704,223.872c-0.348,0.792-0.714,1.443-1.098,1.953c-0.384,0.51-0.779,0.909-1.187,1.197
			c-0.408,0.288-0.822,0.486-1.242,0.594c-0.42,0.108-0.846,0.162-1.277,0.162c-0.408,0-0.831-0.039-1.269-0.117
			c-0.438-0.078-0.849-0.189-1.232-0.333l0.504-2.25c0.592,0.216,1.179,0.324,1.759,0.324c0.375,0,0.734-0.084,1.079-0.252
			c0.344-0.168,0.674-0.528,0.988-1.08c-0.495-0.768-0.969-1.557-1.421-2.367c-0.453-0.81-0.881-1.607-1.286-2.394
			s-0.779-1.542-1.123-2.268s-0.649-1.389-0.915-1.989h3.114c0.192,0.468,0.406,0.969,0.641,1.503
			c0.235,0.534,0.484,1.086,0.75,1.656c0.265,0.57,0.532,1.14,0.803,1.71c0.271,0.57,0.533,1.125,0.786,1.665
			c0.385-1.056,0.752-2.136,1.102-3.24c0.349-1.104,0.686-2.202,1.011-3.294h3.008c-0.314,0.924-0.622,1.788-0.924,2.592
			c-0.302,0.804-0.598,1.566-0.888,2.286c-0.29,0.72-0.577,1.404-0.86,2.052C228.245,222.629,227.97,223.259,227.704,223.872z"/>
		<path fill="#010101" d="M238.111,227.777c-2.028,0-3.573-0.564-4.635-1.692s-1.593-2.73-1.593-4.806
			c0-1.032,0.162-1.953,0.486-2.763c0.324-0.81,0.768-1.494,1.332-2.052s1.236-0.981,2.016-1.269
			c0.78-0.288,1.626-0.432,2.538-0.432c0.528,0,1.008,0.039,1.44,0.117s0.81,0.168,1.134,0.27c0.324,0.102,0.594,0.207,0.81,0.315
			c0.216,0.108,0.372,0.192,0.468,0.252l-0.81,2.268c-0.384-0.204-0.831-0.378-1.341-0.522c-0.51-0.144-1.089-0.216-1.737-0.216
			c-0.432,0-0.855,0.072-1.269,0.216c-0.414,0.144-0.78,0.375-1.098,0.693c-0.318,0.318-0.573,0.729-0.765,1.233
			c-0.192,0.504-0.288,1.116-0.288,1.836c0,0.576,0.063,1.113,0.189,1.611s0.33,0.927,0.612,1.287
			c0.282,0.36,0.65,0.645,1.107,0.855c0.456,0.21,1.008,0.315,1.656,0.315c0.408,0,0.774-0.024,1.098-0.072
			c0.324-0.048,0.612-0.104,0.864-0.171c0.252-0.066,0.474-0.141,0.666-0.225c0.192-0.083,0.366-0.162,0.522-0.234l0.774,2.25
			c-0.396,0.24-0.954,0.456-1.674,0.648C239.894,227.681,239.059,227.777,238.111,227.777z"/>
		<path fill="#010101" d="M254.348,215.051v12.474h-2.808v-10.098h-4.644v10.098h-2.808v-12.474H254.348z"/>
		<path fill="#010101" d="M257.228,227.525v-12.474h8.424v2.358h-5.616v2.448h4.986v2.304h-4.986v3.006h6.03v2.358H257.228z"/>
		<path fill="#010101" d="M272.293,227.688c-0.684,0-1.365-0.021-2.043-0.063c-0.678-0.042-1.383-0.141-2.115-0.297v-12.096
			c0.576-0.108,1.206-0.189,1.89-0.243c0.684-0.054,1.32-0.081,1.908-0.081c0.792,0,1.521,0.057,2.187,0.171
			c0.666,0.114,1.239,0.309,1.719,0.585s0.855,0.639,1.125,1.089c0.27,0.45,0.405,1.005,0.405,1.665c0,0.996-0.48,1.782-1.44,2.358
			c0.792,0.3,1.332,0.708,1.62,1.224s0.432,1.098,0.432,1.746c0,1.308-0.477,2.292-1.431,2.952
			C275.596,227.357,274.177,227.688,272.293,227.688z M270.871,219.947h1.368c0.864,0,1.482-0.111,1.854-0.333
			c0.372-0.222,0.558-0.579,0.558-1.071c0-0.504-0.192-0.858-0.576-1.062c-0.384-0.204-0.948-0.306-1.692-0.306
			c-0.24,0-0.498,0.003-0.774,0.009c-0.276,0.006-0.522,0.021-0.738,0.045V219.947z M270.871,222.089v3.222
			c0.204,0.024,0.426,0.042,0.666,0.054c0.24,0.012,0.504,0.018,0.792,0.018c0.84,0,1.518-0.12,2.034-0.36
			c0.516-0.24,0.774-0.684,0.774-1.332c0-0.576-0.216-0.987-0.648-1.233s-1.05-0.369-1.854-0.369H270.871z"/>
		<path fill="#010101" d="M288.42,227.525c-0.139-0.434-0.288-0.878-0.448-1.335c-0.16-0.457-0.319-0.912-0.477-1.365h-4.872
			c-0.157,0.455-0.315,0.911-0.474,1.369c-0.158,0.457-0.306,0.901-0.442,1.332h-2.916c0.469-1.344,0.915-2.586,1.336-3.726
			c0.421-1.14,0.833-2.214,1.236-3.222c0.403-1.008,0.801-1.964,1.192-2.871s0.797-1.791,1.219-2.655h2.662
			c0.41,0.864,0.814,1.749,1.212,2.655c0.397,0.906,0.799,1.863,1.203,2.871c0.404,1.008,0.817,2.083,1.239,3.222
			c0.422,1.14,0.868,2.382,1.338,3.726H288.42z M285.046,217.877c-0.063,0.181-0.154,0.428-0.275,0.739
			c-0.121,0.312-0.258,0.672-0.412,1.081c-0.154,0.409-0.327,0.858-0.517,1.35c-0.19,0.491-0.384,1.006-0.581,1.545h3.567
			c-0.191-0.541-0.376-1.058-0.555-1.55c-0.179-0.493-0.349-0.944-0.51-1.353s-0.302-0.769-0.424-1.081
			C285.219,218.299,285.121,218.055,285.046,217.877z"/>
		<path fill="#010101" d="M293.029,227.525v-12.474h8.424v2.358h-5.616v2.448h4.986v2.304h-4.986v3.006h6.03v2.358H293.029z"/>
		<path fill="#010101" d="M307.249,215.051c0.217,0.396,0.466,0.885,0.749,1.467s0.578,1.212,0.884,1.89
			c0.307,0.678,0.61,1.371,0.912,2.079c0.3,0.708,0.583,1.375,0.848,1.998c0.265-0.624,0.547-1.29,0.848-1.998
			c0.301-0.708,0.604-1.401,0.911-2.079c0.307-0.678,0.602-1.308,0.885-1.89c0.283-0.582,0.532-1.071,0.749-1.467h2.556
			c0.12,0.828,0.23,1.755,0.333,2.781c0.102,1.026,0.192,2.094,0.27,3.204s0.15,2.223,0.216,3.339
			c0.066,1.116,0.123,2.166,0.171,3.15h-2.736c-0.036-1.212-0.084-2.532-0.144-3.96c-0.06-1.428-0.15-2.868-0.27-4.32
			c-0.217,0.504-0.458,1.062-0.722,1.674c-0.265,0.612-0.527,1.224-0.786,1.836s-0.509,1.197-0.75,1.755s-0.445,1.035-0.614,1.431
			h-1.962c-0.169-0.396-0.374-0.873-0.614-1.431s-0.491-1.143-0.75-1.755s-0.521-1.224-0.785-1.836s-0.505-1.17-0.722-1.674
			c-0.12,1.452-0.21,2.892-0.27,4.32c-0.06,1.428-0.108,2.748-0.144,3.96h-2.736c0.048-0.984,0.105-2.034,0.171-3.15
			c0.066-1.116,0.138-2.229,0.216-3.339s0.168-2.178,0.27-3.204c0.102-1.026,0.213-1.953,0.333-2.781H307.249z"/>
		<path fill="#010101" d="M331.963,221.279c0,1.068-0.159,2.007-0.477,2.817c-0.318,0.81-0.753,1.488-1.305,2.034
			c-0.552,0.546-1.209,0.957-1.971,1.233s-1.581,0.414-2.457,0.414c-0.852,0-1.656-0.138-2.412-0.414
			c-0.756-0.276-1.417-0.687-1.98-1.233c-0.564-0.546-1.008-1.224-1.332-2.034c-0.324-0.81-0.486-1.749-0.486-2.817
			c0-1.068,0.168-2.007,0.504-2.817s0.789-1.491,1.359-2.043c0.57-0.552,1.229-0.966,1.98-1.242c0.75-0.276,1.539-0.414,2.367-0.414
			c0.852,0,1.656,0.138,2.412,0.414c0.756,0.276,1.416,0.69,1.98,1.242c0.564,0.552,1.008,1.233,1.332,2.043
			S331.963,220.211,331.963,221.279z M322.441,221.279c0,0.612,0.075,1.164,0.225,1.656s0.366,0.915,0.648,1.269
			c0.282,0.354,0.627,0.627,1.035,0.819c0.408,0.192,0.876,0.288,1.404,0.288c0.516,0,0.981-0.096,1.395-0.288
			s0.762-0.465,1.044-0.819c0.282-0.354,0.498-0.777,0.648-1.269s0.225-1.044,0.225-1.656c0-0.612-0.075-1.167-0.225-1.665
			c-0.15-0.498-0.366-0.924-0.648-1.278c-0.282-0.354-0.63-0.627-1.044-0.819s-0.879-0.288-1.395-0.288
			c-0.528,0-0.996,0.099-1.404,0.297c-0.408,0.198-0.753,0.474-1.035,0.828c-0.282,0.354-0.498,0.78-0.648,1.278
			C322.516,220.13,322.441,220.68,322.441,221.279z"/>
		<path fill="#010101" d="M339.991,227.777c-2.028,0-3.573-0.564-4.635-1.692s-1.593-2.73-1.593-4.806
			c0-1.032,0.162-1.953,0.486-2.763c0.324-0.81,0.768-1.494,1.332-2.052s1.236-0.981,2.016-1.269
			c0.78-0.288,1.626-0.432,2.538-0.432c0.528,0,1.008,0.039,1.44,0.117s0.81,0.168,1.134,0.27c0.324,0.102,0.594,0.207,0.81,0.315
			c0.216,0.108,0.372,0.192,0.468,0.252l-0.81,2.268c-0.384-0.204-0.831-0.378-1.341-0.522c-0.51-0.144-1.089-0.216-1.737-0.216
			c-0.432,0-0.855,0.072-1.269,0.216c-0.414,0.144-0.78,0.375-1.098,0.693c-0.318,0.318-0.573,0.729-0.765,1.233
			c-0.192,0.504-0.288,1.116-0.288,1.836c0,0.576,0.063,1.113,0.189,1.611s0.33,0.927,0.612,1.287
			c0.282,0.36,0.65,0.645,1.107,0.855c0.456,0.21,1.008,0.315,1.656,0.315c0.408,0,0.774-0.024,1.098-0.072
			c0.324-0.048,0.612-0.104,0.864-0.171c0.252-0.066,0.474-0.141,0.666-0.225c0.192-0.083,0.366-0.162,0.522-0.234l0.774,2.25
			c-0.396,0.24-0.954,0.456-1.674,0.648C341.773,227.681,340.938,227.777,339.991,227.777z"/>
		<path fill="#010101" d="M355.597,215.051v2.394h-3.762v10.08h-2.808v-10.08h-3.762v-2.394H355.597z"/>
		<path fill="#010101" d="M357.396,227.525v-12.474h2.79v7.362c0.432-0.648,0.894-1.323,1.386-2.025
			c0.492-0.702,0.987-1.379,1.485-2.034c0.498-0.654,0.987-1.269,1.467-1.845c0.48-0.576,0.918-1.062,1.314-1.458h2.286v12.474
			h-2.772v-8.172c-1.056,1.236-2.052,2.55-2.988,3.942s-1.806,2.802-2.61,4.23H357.396z"/>
	</g>
	<g>
		<g>
			<path fill="#010101" d="M241.797,183.343l-11.357-9.5l0.189-0.631c0.066-0.219,6.817-21.917,27.486-22.489l0.809-0.022
				l0.19,0.787c0.167,0.687,3.843,17-16.69,31.415L241.797,183.343z M232.755,173.173l9.144,7.648
				c16.437-11.866,15.883-24.729,15.415-28.062C240.638,153.75,233.972,169.804,232.755,173.173z"/>
			<g>
				<circle fill="#FCDD32" cx="246.314" cy="165.719" r="3.783"/>
				<path fill="#010101" d="M246.313,170.5c-1.119,0-2.208-0.396-3.067-1.115c-0.979-0.819-1.582-1.97-1.695-3.243
					c-0.114-1.272,0.274-2.512,1.094-3.492c0.912-1.089,2.25-1.713,3.67-1.713c1.118,0,2.207,0.395,3.065,1.113
					c2.022,1.692,2.292,4.714,0.602,6.736C249.071,169.876,247.734,170.5,246.313,170.5z M246.315,162.938
					c-0.827,0-1.606,0.363-2.137,0.997c-0.476,0.569-0.702,1.291-0.636,2.031c0.066,0.74,0.417,1.41,0.986,1.886
					c1.137,0.95,2.973,0.784,3.919-0.348c0.983-1.176,0.826-2.935-0.351-3.919C247.599,163.167,246.965,162.938,246.315,162.938z"/>
			</g>
			<g>
				<path fill="#FCDD32" d="M233.646,175.132l5.801,4.852c0,0,1.176,8.568-8.958,10.709l0.309-5.809l-4.17-0.454
					C226.628,184.431,225.669,178.32,233.646,175.132z"/>
				<path fill="#010101" d="M229.421,191.941l0.328-6.165l-3.99-0.434l-0.119-0.756c-0.011-0.069-0.983-6.938,7.635-10.382
					l0.555-0.222l6.556,5.483l0.053,0.383c0.013,0.095,1.176,9.516-9.742,11.824L229.421,191.941z M227.593,183.53l4.253,0.463
					l-0.287,5.399c6.82-2.034,7.01-7.432,6.929-8.906l-5.017-4.196C228.398,178.53,227.658,182.006,227.593,183.53z"/>
			</g>
		</g>
		
			<rect x="236.106" y="172.789" transform="matrix(0.7642 0.645 -0.645 0.7642 170.6918 -110.9749)" fill="#010101" width="2" height="10.296"/>
		<path fill="#010101" d="M225.919,172.854l-1.707-1.043c0.232-0.379,5.744-9.25,11.217-6.513l-0.895,1.789
			C230.739,165.189,225.966,172.776,225.919,172.854z"/>
		<path fill="#010101" d="M245.31,188.004l-1.321-1.501c0.068-0.06,6.715-6.077,4.198-9.479l1.607-1.189
			C253.439,180.76,245.643,187.71,245.31,188.004z"/>
	</g>
</g>
</svg>
