<?xml version="1.0" standalone="no"?>
<!DOCTYPE svg PUBLIC "-//W3C//DTD SVG 20010904//EN"
 "http://www.w3.org/TR/2001/REC-SVG-20010904/DTD/svg10.dtd">
<svg version="1.0" xmlns="http://www.w3.org/2000/svg"
 width="700.000000pt" height="700.000000pt" viewBox="0 0 700.000000 700.000000"
 preserveAspectRatio="xMidYMid meet">
<metadata>
Created by potrace 1.11, written by Peter Selinger 2001-2013
</metadata>
<g transform="translate(0.000000,700.000000) scale(0.100000,-0.100000)"
fill="#000000" stroke="none">
<path d="M4960 5449 c-582 -35 -1088 -228 -1538 -588 -260 -207 -460 -432
-727 -817 -9 -12 -19 -13 -55 -5 -64 15 -121 13 -202 -5 -150 -34 -294 -122
-456 -278 -146 -141 -343 -390 -328 -415 6 -9 152 -101 160 -101 3 0 26 30 52
68 223 315 464 513 645 529 35 4 60 2 58 -3 -2 -5 -38 -77 -80 -159 -83 -163
-163 -348 -200 -463 l-23 -72 39 -33 c22 -17 51 -41 64 -53 l25 -21 -70 -41
c-223 -132 -387 -312 -471 -519 -47 -114 -78 -290 -68 -388 3 -39 10 -77 15
-84 5 -9 70 -20 198 -35 105 -11 192 -23 195 -26 2 -3 -3 -141 -12 -308 l-16
-303 40 7 c90 15 274 67 359 100 290 115 493 301 612 560 34 72 84 244 84 285
0 11 3 19 6 19 3 0 35 -25 70 -55 37 -31 71 -52 77 -49 7 4 59 41 117 83 190
136 373 286 497 405 29 27 56 46 60 42 15 -15 7 -160 -11 -216 -54 -162 -179
-350 -354 -532 l-100 -103 66 -78 67 -77 49 48 c159 154 325 370 400 521 100
199 122 393 63 541 l-26 63 66 71 c211 227 411 516 552 795 153 303 235 557
288 887 25 158 25 563 0 688 -20 99 -31 127 -50 125 -7 -1 -68 -5 -137 -10z
m5 -437 c0 -232 -13 -346 -61 -552 -100 -428 -324 -858 -655 -1255 -121 -144
-361 -381 -529 -521 -153 -127 -292 -234 -304 -234 -10 0 -146 112 -146 120 0
3 -43 41 -95 85 -53 43 -94 82 -93 86 2 4 60 76 131 159 70 82 127 154 127
159 0 4 -33 36 -74 70 l-75 61 -133 -159 c-73 -88 -136 -159 -140 -158 -4 1
-74 57 -155 124 -82 67 -168 137 -192 155 -68 51 -69 54 -31 149 87 223 252
528 399 739 212 306 493 591 766 779 316 218 713 368 1085 410 146 17 154 17
165 9 5 -5 9 -98 10 -226z m-2285 -2211 c55 -46 100 -87 100 -90 0 -4 -56 -73
-125 -155 -69 -81 -125 -150 -125 -154 0 -4 34 -36 76 -71 65 -54 79 -62 88
-49 6 8 65 78 130 156 l119 141 36 -29 c20 -16 49 -40 65 -53 l29 -24 -6 -89
c-25 -368 -245 -641 -626 -775 -30 -10 -55 -18 -56 -17 -1 2 5 121 13 266 8
145 12 265 10 267 -2 2 -97 14 -211 26 l-207 22 0 31 c0 49 37 171 74 244 86
170 225 300 433 407 37 19 71 33 75 32 4 -1 53 -40 108 -86z"/>
<path d="M3718 4411 c-204 -65 -338 -247 -338 -455 1 -141 41 -238 139 -337
103 -104 196 -142 346 -142 105 0 168 20 266 85 68 46 113 101 162 198 31 62
32 70 32 185 0 133 -12 179 -71 270 -111 173 -343 257 -536 196z m255 -213
c100 -43 166 -160 154 -275 -7 -68 -51 -149 -101 -185 -84 -60 -209 -73 -295
-29 -84 43 -151 152 -151 247 0 87 56 183 135 229 81 48 165 52 258 13z"/>
</g>
</svg>
